# xmcd
#
# Track frame offsets:
#	150
#	17866
#	31427
#	41224
#	51672
#	63395
#	80295
#	91973
#	100557
#	115885
#	129355
#	144817
#	154948
#	165595
#	176795
#	186712
#	198412
#	212181
#	224993
#	238885
#	252942
#	264267
#	275998
#	286990
#	301503
#
# Disc length: 4260 seconds
#
# Revision: 2
# Processed by: cddbd v1.5.1PL0 Copyright (c) Steve Scherf et al.
# Submitted via: audiograbber 1.83.01
#
DISCID=7e10a219
DTITLE=Various Artist - John Wayne Der Held - Und Weitere Wahre Geschichten Aus Dem Wi
DTITLE=lden Westen
DYEAR=1998
DGENRE=Country
TTITLE0=Arnold Marquis - John Wayne, Der Held
TTITLE1=Die Oklahoma Boys - John Brown's Tochter
TTITLE2=Martin Lauer - Die Letzte Rose Der Prärie
TTITLE3=Ronny - Jesse James
TTITLE4=Marika Kilius - Wenn die Cowboys Träumen
TTITLE5=Bruce Low - In Der Sierra Nevada
TTITLE6=Gus Backus - Brauer Bär Und Weisse Taube
TTITLE7=Larry - Yippi-Yeh
TTITLE8=Nilsen Brothers - Tom Dooley, 2
TTITLE9=Gus Backus - Deshalb Zog Ich Nach Alaska
TTITLE10=Harry Peters - Robin Dooly's Geheimnis
TTITLE11=Larry - Ich Reite, Reite nach Norden
TTITLE12=Das Medium Terzett - Buffalo Bill
TTITLE13=Die Tramps - Frühling War Es Am Blue River
TTITLE14=Kai Hagen - Gold Hab Ich Nie Gewollt
TTITLE15=Franzl Lang - Ich Kenn' Ein Haus In Den Silbernen Bergen
TTITLE16=Ralf Bendix - Die Geschichte Vom Sonny Boy
TTITLE17=Gus Backus - Da Sprach Der Alte Häuptling Der Indianer
TTITLE18=Die Guten Freunde (Peter Beil and Leo Leandros) - Die Story Vom Alten Jo
TTITLE18=e
TTITLE19=Jost Wöhrmann - Der Alte Cowboy
TTITLE20=Franzl Lang - Denn Der Joe Ist Mal Wieder Im Land
TTITLE21=Cornel Trio - Revolver Jim Aus Texas
TTITLE22=Kai Hagen - Jimmy Und Johnny Und Bill
TTITLE23=Cornel Trio - Frühling In Texas
TTITLE24=Eddie Wilson - Noch Drei Lange Stunden
EXTD=(P) and (C) 1998 Bear Family Records
EXTT0=1979
EXTT1=1961
EXTT2=1962
EXTT3=1968
EXTT4=1963
EXTT5=1959
EXTT6=1960
EXTT7=1965
EXTT8=1959
EXTT9=1964
EXTT10=1964
EXTT11=1965
EXTT12=1964
EXTT13=1962
EXTT14=1965
EXTT15=1957
EXTT16=1963
EXTT17=1960
EXTT18=1961
EXTT19=1956
EXTT20=1957
EXTT21=1954
EXTT22=1965
EXTT23=1954
EXTT24=1963
PLAYORDER=
